<svg width="52" height="88" viewBox="0 0 52 88" fill="none" xmlns="http://www.w3.org/2000/svg">
<path d="M22.572 42H19.58V29.196C19.58 24.004 17.82 21.408 14.3 21.408C13.156 21.408 12.0413 21.7013 10.956 22.288C9.87067 22.8453 8.90267 23.6227 8.052 24.62C7.23067 25.588 6.644 26.7027 6.292 27.964V42H3.3V9.88H6.292V24.268C7.20133 22.5667 8.46267 21.2173 10.076 20.22C11.7187 19.1933 13.464 18.68 15.312 18.68C17.072 18.68 18.48 19.1053 19.536 19.956C20.592 20.7773 21.3547 21.936 21.824 23.432C22.3227 24.8987 22.572 26.6147 22.572 28.58V42Z" fill="black"/>
<path d="M30.62 49.04C31.0307 49.0693 31.4267 49.084 31.808 49.084C32.1893 49.1133 32.468 49.0987 32.644 49.04C32.996 49.0107 33.3187 48.8053 33.612 48.424C33.9347 48.072 34.316 47.3973 34.756 46.4C35.2253 45.432 35.856 43.9653 36.648 42L26.66 19.076H29.828L38.232 38.92L45.976 19.076H48.968L37.088 48.644C36.7653 49.4947 36.2227 50.228 35.46 50.844C34.6973 51.46 33.6853 51.7827 32.424 51.812C32.16 51.8413 31.8813 51.8413 31.588 51.812C31.2947 51.812 30.972 51.7827 30.62 51.724V49.04Z" fill="black"/>
<path d="M15.004 68.44C13.0973 68.44 11.3813 67.9413 9.856 66.944C8.36 65.9467 7.172 64.7147 6.292 63.248V77.372H3.3V45.076H5.984V49.52C6.89333 48.0827 8.096 46.924 9.592 46.044C11.1173 45.1347 12.76 44.68 14.52 44.68C16.104 44.68 17.556 45.0173 18.876 45.692C20.196 46.3373 21.34 47.2173 22.308 48.332C23.3053 49.4467 24.068 50.7227 24.596 52.16C25.124 53.568 25.388 55.0347 25.388 56.56C25.388 58.7013 24.948 60.6813 24.068 62.5C23.2173 64.2893 22 65.7267 20.416 66.812C18.8613 67.8973 17.0573 68.44 15.004 68.44ZM14.168 65.8C15.84 65.8 17.2773 65.36 18.48 64.48C19.712 63.5707 20.6653 62.412 21.34 61.004C22.0147 59.596 22.352 58.1147 22.352 56.56C22.352 54.9173 21.9707 53.392 21.208 51.984C20.4453 50.576 19.4187 49.4467 18.128 48.596C16.8667 47.7453 15.4293 47.32 13.816 47.32C12.8187 47.32 11.7627 47.584 10.648 48.112C9.56267 48.6107 8.59467 49.3 7.744 50.18C6.92267 51.0307 6.43867 51.9693 6.292 52.996V60.036C6.96667 61.6493 8.02267 63.0133 9.46 64.128C10.8973 65.2427 12.4667 65.8 14.168 65.8Z" fill="black"/>
<path d="M48.572 78H45.58V65.196C45.58 62.4973 45.1693 60.532 44.348 59.3C43.556 58.0387 42.324 57.408 40.652 57.408C39.4787 57.408 38.32 57.7013 37.176 58.288C36.032 58.8453 35.02 59.6227 34.14 60.62C33.2893 61.588 32.6733 62.7027 32.292 63.964V78H29.3V55.076H32.028V60.268C32.9373 58.596 34.272 57.2467 36.032 56.22C37.792 55.1933 39.6987 54.68 41.752 54.68C43.4533 54.68 44.8027 55.0907 45.8 55.912C46.7973 56.704 47.5013 57.848 47.912 59.344C48.352 60.8107 48.572 62.556 48.572 64.58V78Z" fill="black"/>
</svg>
