<svg width="606" height="627" viewBox="0 0 606 627" fill="none" xmlns="http://www.w3.org/2000/svg">
<path fill-rule="evenodd" clip-rule="evenodd" d="M438.667 221H422V421H438.667V221ZM472 221H455.333V421H472V221ZM488.667 221H505.333V421H488.667V221ZM538.667 221H522V421H538.667V221ZM555.333 221H572V421H555.333V221ZM605.333 221H588.667V421H605.333V221Z" fill="black" style="mix-blend-mode:overlay"/>
<path fill-rule="evenodd" clip-rule="evenodd" d="M238.667 21H222V221H238.667V21ZM272 21H255.333V221H272V21ZM288.667 21H305.333V221H288.667V21ZM338.667 21H322V221H338.667V21ZM355.333 21H372V221H355.333V21ZM405.333 21H388.667V221H405.333V21Z" fill="black" style="mix-blend-mode:hard-light"/>
<path fill-rule="evenodd" clip-rule="evenodd" d="M505 21H605V121L505 21ZM405 21L505 121L605 221H505L405 121V21Z" fill="black" style="mix-blend-mode:hard-light"/>
<path fill-rule="evenodd" clip-rule="evenodd" d="M138.667 121H122V321H138.667V121ZM172 121H155.333V321H172V121ZM188.667 121H205.333V321H188.667V121ZM238.667 121H222V321H238.667V121ZM255.333 121H272V321H255.333V121ZM305.333 121H288.667V321H305.333V121Z" fill="black" style="mix-blend-mode:multiply"/>
<path fill-rule="evenodd" clip-rule="evenodd" d="M438.667 221H422V421H438.667V221ZM472 221H455.333V421H472V221ZM488.667 221H505.333V421H488.667V221ZM538.667 221H522V421H538.667V221ZM555.333 221H572V421H555.333V221ZM605.333 221H588.667V421H605.333V221Z" fill="black" style="mix-blend-mode:hard-light"/>
<path fill-rule="evenodd" clip-rule="evenodd" d="M44.6667 350H28V550H44.6667V350ZM78 350H61.3333V550H78V350ZM94.6667 350H111.333V550H94.6667V350ZM144.667 350H128V550H144.667V350ZM161.333 350H178V550H161.333V350ZM211.333 350H194.667V550H211.333V350Z" fill="#636363" style="mix-blend-mode:hard-light"/>
<path d="M251 302H451V502H251V302Z" fill="#656567" style="mix-blend-mode:hard-light"/>
<path d="M134 477.18V479.18H136V477.18H134ZM134 428H136V426H134V428ZM132 477.18H130V479.18H132V477.18ZM132 428V426H130V428H132ZM183.18 477.18V479.18H185.18V477.18H183.18ZM183.18 428H185.18V426H183.18V428ZM181.18 477.18H179.18V479.18H181.18V477.18ZM181.18 428V426H179.18V428H181.18ZM232.361 477.18V479.18H234.361V477.18H232.361ZM232.361 428H234.361V426H232.361V428ZM230.361 477.18H228.361V479.18H230.361V477.18ZM230.361 428V426H228.361V428H230.361ZM281.541 477.18V479.18H283.541V477.18H281.541ZM281.541 428H283.541V426H281.541V428ZM279.541 477.18H277.541V479.18H279.541V477.18ZM279.541 428V426H277.541V428H279.541ZM330.721 477.18V479.18H332.721V477.18H330.721ZM330.721 428H332.721V426H330.721V428ZM328.721 477.18H326.721V479.18H328.721V477.18ZM328.721 428V426H326.721V428H328.721ZM134 624.721V626.721H136V624.721H134ZM134 575.541H136V573.541H134V575.541ZM132 624.721H130V626.721H132V624.721ZM132 575.541V573.541H130V575.541H132ZM183.18 624.721V626.721H185.18V624.721H183.18ZM183.18 575.541H185.18V573.541H183.18V575.541ZM181.18 624.721H179.18V626.721H181.18V624.721ZM181.18 575.541V573.541H179.18V575.541H181.18ZM232.361 624.721V626.721H234.361V624.721H232.361ZM232.361 575.541H234.361V573.541H232.361V575.541ZM230.361 624.721H228.361V626.721H230.361V624.721ZM230.361 575.541V573.541H228.361V575.541H230.361ZM281.541 624.721V626.721H283.541V624.721H281.541ZM281.541 575.541H283.541V573.541H281.541V575.541ZM279.541 624.721H277.541V626.721H279.541V624.721ZM279.541 575.541V573.541H277.541V575.541H279.541ZM328.721 575.541V573.541H326.721V575.541H328.721ZM328.721 624.721H326.721V626.721H328.721V624.721ZM330.721 575.541H332.721V573.541H330.721V575.541ZM330.721 624.721V626.721H332.721V624.721H330.721ZM136 477.18V428H132V477.18H136ZM132 479.18H134V475.18H132V479.18ZM130 428V477.18H134V428H130ZM134 426H132V430H134V426ZM185.18 477.18V428H181.18V477.18H185.18ZM181.18 479.18H183.18V475.18H181.18V479.18ZM179.18 428V477.18H183.18V428H179.18ZM183.18 426H181.18V430H183.18V426ZM234.361 477.18V428H230.361V477.18H234.361ZM230.361 479.18H232.361V475.18H230.361V479.18ZM228.361 428V477.18H232.361V428H228.361ZM232.361 426H230.361V430H232.361V426ZM283.541 477.18V428H279.541V477.18H283.541ZM279.541 479.18H281.541V475.18H279.541V479.18ZM277.541 428V477.18H281.541V428H277.541ZM281.541 426H279.541V430H281.541V426ZM332.721 477.18V428H328.721V477.18H332.721ZM328.721 479.18H330.721V475.18H328.721V479.18ZM326.721 428V477.18H330.721V428H326.721ZM330.721 426H328.721V430H330.721V426ZM136 624.721V575.541H132V624.721H136ZM132 626.721H134V622.721H132V626.721ZM130 575.541V624.721H134V575.541H130ZM134 573.541H132V577.541H134V573.541ZM185.18 624.721V575.541H181.18V624.721H185.18ZM181.18 626.721H183.18V622.721H181.18V626.721ZM179.18 575.541V624.721H183.18V575.541H179.18ZM183.18 573.541H181.18V577.541H183.18V573.541ZM234.361 624.721V575.541H230.361V624.721H234.361ZM230.361 626.721H232.361V622.721H230.361V626.721ZM228.361 575.541V624.721H232.361V575.541H228.361ZM232.361 573.541H230.361V577.541H232.361V573.541ZM283.541 624.721V575.541H279.541V624.721H283.541ZM279.541 626.721H281.541V622.721H279.541V626.721ZM277.541 575.541V624.721H281.541V575.541H277.541ZM281.541 573.541H279.541V577.541H281.541V573.541ZM326.721 575.541V624.721H330.721V575.541H326.721ZM330.721 573.541H328.721V577.541H330.721V573.541ZM332.721 624.721V575.541H328.721V624.721H332.721ZM328.721 626.721H330.721V622.721H328.721V626.721Z" fill="black" style="mix-blend-mode:hard-light"/>
<path fill-rule="evenodd" clip-rule="evenodd" d="M98.3333 98.3333V0H101.667V98.3333H200V101.667H101.667V200H98.3333V101.667H0V98.3333H98.3333Z" fill="black" style="mix-blend-mode:multiply"/>
<path fill-rule="evenodd" clip-rule="evenodd" d="M471.333 524.333V426H474.667V524.333H573V527.667H474.667V626H471.333V527.667H373V524.333H471.333Z" fill="black" style="mix-blend-mode:hard-light"/>
</svg>
